<svg xmlns="http://www.w3.org/2000/svg" width="1920" height="1080" viewBox="0 0 1920 1080">
  <defs>
    <style>
      text { font-family: Pretendard, "Noto Sans KR", sans-serif; }
      .muted { fill: #667085; font-size: 13px; }
      .small { font-size: 12px; }
      .label { font-size: 14px; font-weight: 600; }
      .title { font-size: 23px; font-weight: 700; }
      .icon { fill: none; stroke: #ffffff; stroke-width: 2; stroke-linecap: round; stroke-linejoin: round; }
    </style>
    <filter id="shadow" x="-10%" y="-10%" width="120%" height="130%">
      <feDropShadow dx="0" dy="2" stdDeviation="4" flood-color="#101828" flood-opacity=".08"/>
    </filter>
  </defs>

  <rect width="1920" height="1080" fill="#f4f5f7"/>
  <rect width="226" height="1080" fill="#1d203d"/>
  <text x="24" y="70" fill="#fff" font-size="24" font-weight="700">VEDA</text>
  <text x="24" y="91" fill="#aab0d0" font-size="11">VMS CONSOLE</text>
  <text x="24" y="132" fill="#949bbb" font-size="10">WORKSPACE</text>
  <rect x="0" y="194" width="226" height="50" fill="#333858"/>
  <rect x="0" y="194" width="4" height="50" fill="#f37321"/>
  <g transform="translate(25 212)"><circle cx="7" cy="7" r="6" class="icon"/><path d="M4 7h6M7 4v6" class="icon"/></g>
  <text x="52" y="225" fill="#fff" font-size="14" font-weight="600">녹화 재생</text>
  <text x="52" y="176" fill="#d9dced" font-size="14">실시간 모니터링</text>
  <text x="52" y="275" fill="#d9dced" font-size="14">이벤트</text>
  <text x="52" y="326" fill="#d9dced" font-size="14">장치 및 제어</text>
  <text x="52" y="377" fill="#d9dced" font-size="14">설정</text>

  <rect x="226" width="1694" height="99" fill="#fff"/>
  <text x="252" y="48" class="title">녹화 재생</text>
  <text x="252" y="76" class="muted">4채널 녹화 구간을 같은 시간축에서 확인하고 재생합니다.</text>

  <!-- query -->
  <rect x="244" y="117" width="1658" height="70" rx="10" fill="#fff" stroke="#d8dce5"/>
  <text x="264" y="146" class="small">조회 시작</text>
  <rect x="264" y="151" width="350" height="25" rx="4" fill="#f8f9fb" stroke="#cfd4df"/>
  <text x="278" y="169" font-size="13">2026-07-29 11:30:00</text>
  <text x="642" y="146" class="small">조회 종료</text>
  <rect x="642" y="151" width="350" height="25" rx="4" fill="#f8f9fb" stroke="#cfd4df"/>
  <text x="656" y="169" font-size="13">2026-07-29 12:30:00</text>
  <rect x="1741" y="132" width="141" height="40" rx="7" fill="#f37321"/>
  <text x="1780" y="158" fill="#fff" font-size="14" font-weight="700">타임라인 조회</text>

  <!-- timeline card -->
  <rect x="244" y="203" width="1658" height="337" rx="10" fill="#fff" stroke="#d8dce5" filter="url(#shadow)"/>
  <text x="264" y="235" class="label">4채널 타임라인</text>
  <circle cx="406" cy="230" r="5" fill="#343a5e"/><text x="417" y="235" class="muted">녹화</text>
  <circle cx="468" cy="230" r="5" fill="#f37321"/><text x="479" y="235" class="muted">이벤트</text>
  <line x1="381" y1="265" x2="1858" y2="265" stroke="#e1e5ec"/>
  <g class="muted">
    <text x="381" y="258">11:30</text><text x="743" y="258">11:45</text>
    <text x="1111" y="258">12:00</text><text x="1477" y="258">12:15</text>
    <text x="1821" y="258">12:30</text>
  </g>
  <g stroke="#e4e7ec"><line x1="390" y1="265" x2="390" y2="510"/><line x1="758" y1="265" x2="758" y2="510"/>
    <line x1="1126" y1="265" x2="1126" y2="510"/><line x1="1494" y1="265" x2="1494" y2="510"/><line x1="1858" y1="265" x2="1858" y2="510"/></g>
  <g font-size="13" font-weight="600"><text x="264" y="300">CH 1</text><text x="264" y="358">CH 2</text>
    <text x="264" y="416">CH 3</text><text x="264" y="474">CH 4</text></g>
  <g fill="#eceef3"><rect x="381" y="280" width="1477" height="23" rx="4"/><rect x="381" y="338" width="1477" height="23" rx="4"/>
    <rect x="381" y="396" width="1477" height="23" rx="4"/><rect x="381" y="454" width="1477" height="23" rx="4"/></g>
  <g fill="#343a5e">
    <rect x="498" y="280" width="230" height="23" rx="3"/><rect x="793" y="280" width="466" height="23" rx="3"/>
    <rect x="417" y="338" width="382" height="23" rx="3"/><rect x="1013" y="338" width="427" height="23" rx="3"/>
    <rect x="675" y="396" width="523" height="23" rx="3"/><rect x="1327" y="396" width="354" height="23" rx="3"/>
    <rect x="546" y="454" width="766" height="23" rx="3"/>
  </g>
  <g fill="#f37321">
    <rect x="540" y="276" width="3" height="31"/><rect x="574" y="276" width="3" height="31"/><rect x="658" y="276" width="3" height="31"/>
    <rect x="836" y="276" width="3" height="31"/><rect x="912" y="276" width="3" height="31"/><rect x="1035" y="276" width="3" height="31"/><rect x="1178" y="276" width="3" height="31"/>
    <rect x="616" y="334" width="3" height="31"/><rect x="1080" y="334" width="3" height="31"/><rect x="1358" y="334" width="3" height="31"/>
    <rect x="719" y="392" width="3" height="31"/><rect x="889" y="392" width="3" height="31"/><rect x="1559" y="392" width="3" height="31"/>
    <rect x="599" y="450" width="3" height="31"/><rect x="735" y="450" width="3" height="31"/><rect x="919" y="450" width="3" height="31"/><rect x="1252" y="450" width="3" height="31"/>
  </g>
  <line x1="923" y1="266" x2="923" y2="497" stroke="#f37321" stroke-width="2"/>
  <path d="M916 266h14l-7 8z" fill="#f37321"/>
  <rect x="846" y="493" width="155" height="28" rx="14" fill="#fff3eb" stroke="#f7b07d"/>
  <text x="863" y="512" fill="#c84b08" font-size="12" font-weight="600">CH 4 · 11:51:43 선택</text>

  <!-- player -->
  <rect x="244" y="556" width="1658" height="465" rx="10" fill="#fff" stroke="#d8dce5" filter="url(#shadow)"/>
  <text x="264" y="588" class="label">CH 4 · 2026-07-29 11:51:43</text>
  <text x="1818" y="588" fill="#16825d" font-size="13" font-weight="600">재생 준비</text>
  <rect x="264" y="604" width="1618" height="344" rx="3" fill="#10131c"/>
  <rect x="738" y="604" width="670" height="344" fill="#4b5260"/>
  <text x="1007" y="765" fill="#d6d9e3" font-size="15">선택 시각 썸네일 / 재생 영상</text>
  <text x="991" y="791" fill="#aeb4c2" font-size="12">Pi thumbnail API 연동 후 즉시 갱신</text>

  <!-- controls -->
  <circle cx="296" cy="981" r="18" fill="#f37321"/><path d="M291 972l13 9-13 9z" fill="#fff"/>
  <rect x="329" y="968" width="38" height="26" rx="5" fill="#f3f4f6" stroke="#d0d5dd"/>
  <rect x="343" y="975" width="4" height="12" fill="#667085"/><rect x="351" y="975" width="4" height="12" fill="#667085"/>
  <rect x="377" y="968" width="38" height="26" rx="5" fill="#f3f4f6" stroke="#d0d5dd"/><rect x="390" y="976" width="11" height="11" fill="#667085"/>
  <text x="434" y="986" class="small">11:51:43 / 12:03:10</text>
  <line x1="598" y1="981" x2="1600" y2="981" stroke="#d3d7df" stroke-width="4"/>
  <line x1="598" y1="981" x2="887" y2="981" stroke="#f37321" stroke-width="4"/>
  <circle cx="887" cy="981" r="6" fill="#f37321"/>
  <rect x="1626" y="965" width="78" height="32" rx="5" fill="#f8f9fb" stroke="#d0d5dd"/>
  <text x="1647" y="986" class="small">1.0×</text>
  <rect x="1715" y="965" width="147" height="32" rx="5" fill="#f8f9fb" stroke="#d0d5dd"/>
  <text x="1733" y="986" class="small">⛶ 전체화면 · F11</text>

  <rect x="226" y="1042" width="1694" height="38" fill="#fff" stroke="#d8dce5"/>
  <text x="249" y="1066" class="small">선택: CH 4 · 11:51:43</text>
  <text x="1725" y="1066" class="muted">PC 2026-07-29 12:37:12</text>
</svg>
